<svg width="400" height="200" viewBox="0 0 400 200" fill="none" xmlns="http://www.w3.org/2000/svg">
  <rect width="400" height="200" fill="#000000"/>
  
  <!-- Sleep bars visualization -->
  <g opacity="0.3">
    <rect x="40" y="20" width="4" height="160" fill="white"/>
    <rect x="80" y="20" width="4" height="160" fill="white"/>
    <rect x="120" y="20" width="4" height="160" fill="white"/>
    <rect x="160" y="20" width="4" height="160" fill="white"/>
    <rect x="200" y="20" width="4" height="160" fill="white"/>
    <rect x="240" y="20" width="4" height="160" fill="white"/>
    <rect x="280" y="20" width="4" height="160" fill="white"/>
    <rect x="320" y="20" width="4" height="160" fill="white"/>
    <rect x="360" y="20" width="4" height="160" fill="white"/>
  </g>
  
  <!-- Sleep phases -->
  <rect x="40" y="80" width="40" height="60" fill="#8B5CF6" opacity="0.8"/>
  <rect x="80" y="100" width="20" height="40" fill="#8B5CF6" opacity="0.6"/>
  <rect x="100" y="90" width="30" height="50" fill="#8B5CF6" opacity="0.7"/>
  <rect x="130" y="110" width="25" height="30" fill="#8B5CF6" opacity="0.5"/>
  <rect x="155" y="85" width="35" height="55" fill="#8B5CF6" opacity="0.8"/>
  <rect x="190" y="95" width="20" height="45" fill="#8B5CF6" opacity="0.6"/>
  <rect x="210" y="75" width="40" height="65" fill="#8B5CF6" opacity="0.9"/>
  <rect x="250" y="100" width="30" height="40" fill="#8B5CF6" opacity="0.6"/>
  <rect x="280" y="90" width="35" height="50" fill="#8B5CF6" opacity="0.7"/>
  <rect x="315" y="105" width="25" height="35" fill="#8B5CF6" opacity="0.5"/>
  <rect x="340" y="85" width="20" height="55" fill="#8B5CF6" opacity="0.7"/>
</svg>