<svg width="458" height="200" viewBox="0 0 458 200" fill="none" xmlns="http://www.w3.org/2000/svg">
  <rect width="458" height="200" fill="#1a1a1a"/>
  
  <!-- Grid lines -->
  <g opacity="0.15">
    <rect x="50" y="20" width="1" height="160" fill="white"/>
    <rect x="100" y="20" width="1" height="160" fill="white"/>
    <rect x="150" y="20" width="1" height="160" fill="white"/>
    <rect x="200" y="20" width="1" height="160" fill="white"/>
    <rect x="250" y="20" width="1" height="160" fill="white"/>
    <rect x="300" y="20" width="1" height="160" fill="white"/>
    <rect x="350" y="20" width="1" height="160" fill="white"/>
    <rect x="400" y="20" width="1" height="160" fill="white"/>
  </g>
  
  <!-- Sleep phase bars -->
  <rect x="40" y="120" width="8" height="40" fill="#9333EA" />
  <rect x="52" y="100" width="8" height="60" fill="#9333EA" />
  <rect x="64" y="110" width="8" height="50" fill="#9333EA" />
  <rect x="76" y="90" width="8" height="70" fill="#9333EA" />
  
  <rect x="100" y="130" width="12" height="30" fill="#A855F7" />
  <rect x="116" y="110" width="12" height="50" fill="#A855F7" />
  <rect x="132" y="120" width="12" height="40" fill="#A855F7" />
  
  <rect x="160" y="80" width="16" height="80" fill="#9333EA" />
  <rect x="180" y="100" width="16" height="60" fill="#9333EA" />
  <rect x="200" y="110" width="16" height="50" fill="#9333EA" />
  
  <rect x="240" y="90" width="10" height="70" fill="#A855F7" />
  <rect x="254" y="120" width="10" height="40" fill="#A855F7" />
  <rect x="268" y="100" width="10" height="60" fill="#A855F7" />
  <rect x="282" y="130" width="10" height="30" fill="#A855F7" />
  
  <rect x="320" y="110" width="14" height="50" fill="#9333EA" />
  <rect x="338" y="90" width="14" height="70" fill="#9333EA" />
  <rect x="356" y="120" width="14" height="40" fill="#9333EA" />
  <rect x="374" y="100" width="14" height="60" fill="#9333EA" />
  <rect x="392" y="115" width="14" height="45" fill="#9333EA" />
  
  <!-- Highlight bars -->
  <rect x="40" y="120" width="8" height="2" fill="white" opacity="0.4" />
  <rect x="160" y="80" width="16" height="2" fill="white" opacity="0.4" />
  <rect x="338" y="90" width="14" height="2" fill="white" opacity="0.4" />
</svg>